Normalized EMG Linear Envelopes
nRows=122
nColumns=4

endheader
time	 med_gas_r	  soleus_r	 tib_ant_r	
3.25	  0.007645	  0.006735	  0.001492	
3.3125	  0.007440	  0.006967	  0.001663	
3.375	  0.007570	  0.007124	  0.002200	
3.4375	  0.007844	  0.007155	  0.003318	
3.5	  0.008092	  0.007174	  0.005007	
3.5625	  0.008286	  0.007374	  0.006647	
3.625	  0.008321	  0.007760	  0.006696	
3.6875	  0.008041	  0.008091	  0.005174	
3.75	  0.007489	  0.007979	  0.003495	
3.8125	  0.007079	  0.007579	  0.002316	
3.875	  0.007031	  0.007203	  0.001713	
3.9375	  0.007313	  0.006996	  0.001538	
4	  0.007579	  0.006965	  0.001613	
4.0625	  0.007481	  0.007112	  0.001823	
4.125	  0.007290	  0.007298	  0.002052	
4.1875	  0.007224	  0.007513	  0.002153	
4.25	  0.007266	  0.007868	  0.002096	
4.3125	  0.007292	  0.007994	  0.002018	
4.375	  0.007445	  0.007565	  0.001950	
4.4375	  0.007723	  0.007016	  0.001884	
4.5	  0.008151	  0.006730	  0.001821	
4.5625	  0.008782	  0.006780	  0.001778	
4.625	  0.009216	  0.006979	  0.001752	
4.6875	  0.009015	  0.006876	  0.001686	
4.75	  0.008231	  0.005875	  0.001503	
4.8125	  0.007098	  0.003252	  0.001140	
4.875	  0.005626	 -0.001319	  0.000649	
4.9375	  0.003887	 -0.006777	  0.000373	
5	  0.002436	 -0.009208	  0.001058	
5.0625	  0.002845	 -0.000178	  0.003902	
5.125	  0.008306	  0.033838	  0.010240	
5.1875	  0.023661	  0.107905	  0.020491	
5.25	  0.053805	  0.225755	  0.032618	
5.3125	  0.102815	  0.360240	  0.042920	
5.375	  0.170646	  0.445461	  0.049048	
5.4375	  0.249932	  0.433969	  0.049209	
5.5	  0.317535	  0.354600	  0.044158	
5.5625	  0.356828	  0.261782	  0.037208	
5.625	  0.362803	  0.182424	  0.031275	
5.6875	  0.348761	  0.135983	  0.028149	
5.75	  0.332746	  0.120429	  0.027403	
5.8125	  0.326471	  0.127863	  0.027951	
5.875	  0.324147	  0.146281	  0.029517	
5.9375	  0.311651	  0.174641	  0.032008	
6	  0.289690	  0.210060	  0.034746	
6.0625	  0.272150	  0.237328	  0.037537	
6.125	  0.261057	  0.239234	  0.038456	
6.1875	  0.248750	  0.213628	  0.036326	
6.25	  0.229455	  0.175166	  0.031578	
6.3125	  0.209717	  0.141407	  0.026558	
6.375	  0.200601	  0.116665	  0.023305	
6.4375	  0.202990	  0.109524	  0.022160	
6.5	  0.209818	  0.115711	  0.022351	
6.5625	  0.218558	  0.124182	  0.023237	
6.625	  0.238149	  0.130499	  0.024335	
6.6875	  0.257883	  0.136583	  0.025020	
6.75	  0.269511	  0.146238	  0.024944	
6.8125	  0.269331	  0.157063	  0.024877	
6.875	  0.255312	  0.170015	  0.024704	
6.9375	  0.236067	  0.180092	  0.023735	
7	  0.212601	  0.181875	  0.022236	
7.0625	  0.181598	  0.175172	  0.020380	
7.125	  0.143326	  0.163233	  0.018525	
7.1875	  0.111872	  0.154962	  0.016988	
7.25	  0.097755	  0.153432	  0.015681	
7.3125	  0.097520	  0.149601	  0.014583	
7.375	  0.102089	  0.138554	  0.013997	
7.4375	  0.107996	  0.131205	  0.014062	
7.5	  0.114620	  0.135349	  0.014317	
7.5625	  0.119198	  0.149076	  0.014140	
7.625	  0.122132	  0.160681	  0.013536	
7.6875	  0.127395	  0.164953	  0.013363	
7.75	  0.136628	  0.162892	  0.013637	
7.8125	  0.148324	  0.162116	  0.014044	
7.875	  0.158242	  0.168639	  0.014259	
7.9375	  0.165299	  0.181025	  0.014484	
8	  0.169146	  0.184628	  0.014670	
8.0625	  0.174858	  0.185376	  0.014736	
8.125	  0.177892	  0.191659	  0.014541	
8.1875	  0.176099	  0.200316	  0.014049	
8.25	  0.170225	  0.201597	  0.013479	
8.3125	  0.159908	  0.197693	  0.013197	
8.375	  0.152986	  0.181455	  0.012997	
8.4375	  0.145863	  0.151497	  0.013019	
8.5	  0.138040	  0.125551	  0.013247	
8.5625	  0.137203	  0.112447	  0.013716	
8.625	  0.150400	  0.112249	  0.014450	
8.6875	  0.177208	  0.120905	  0.015017	
8.75	  0.214034	  0.133463	  0.015233	
8.8125	  0.260234	  0.148209	  0.015373	
8.875	  0.295809	  0.163517	  0.015780	
8.9375	  0.306097	  0.173717	  0.016097	
9	  0.299696	  0.174242	  0.015952	
9.0625	  0.301311	  0.176132	  0.015959	
9.125	  0.318099	  0.181398	  0.017177	
9.1875	  0.338521	  0.182029	  0.019895	
9.25	  0.344670	  0.184653	  0.023422	
9.3125	  0.341592	  0.193589	  0.027474	
9.375	  0.337145	  0.200974	  0.031382	
9.4375	  0.340698	  0.202647	  0.034560	
9.5	  0.347467	  0.198254	  0.035598	
9.5625	  0.358884	  0.197016	  0.034480	
9.625	  0.377159	  0.214633	  0.033704	
9.6875	  0.403972	  0.262519	  0.035462	
9.75	  0.443854	  0.336463	  0.040676	
9.8125	  0.492289	  0.405852	  0.047842	
9.875	  0.529898	  0.422303	  0.052871	
9.9375	  0.530861	  0.377347	  0.053040	
10	  0.491940	  0.308625	  0.047292	
10.0625	  0.428580	  0.239259	  0.038827	
10.125	  0.370893	  0.192256	  0.031945	
10.1875	  0.325315	  0.165135	  0.027074	
10.25	  0.281419	  0.142861	  0.022535	
10.3125	  0.237114	  0.116031	  0.018059	
10.375	  0.195657	  0.088993	  0.014116	
10.4375	  0.152414	  0.068748	  0.010903	
10.5	  0.117303	  0.058186	  0.008420	
10.5625	  0.090177	  0.055087	  0.006637	
10.625	  0.063215	  0.052020	  0.005387	
10.6875	  0.044190	  0.053151	  0.004788	
10.75	  0.032095	  0.058924	  0.004642	
10.8125	  0.022969	  0.063656	  0.004556	
